<svg width="463" height="463" viewBox="0 0 463 463" fill="none" xmlns="http://www.w3.org/2000/svg">
<path d="M462.363 328.047C462.363 412.197 412.197 462.363 328.047 462.363H300.536C287.821 462.363 277.418 451.96 277.418 439.245V305.853C277.418 299.612 282.504 294.294 288.746 294.294L329.434 293.601C332.671 293.37 335.445 291.058 336.138 287.821L344.23 243.666C344.923 239.504 341.687 235.574 337.294 235.574L288.052 236.268C281.579 236.268 276.493 231.182 276.262 224.94L275.337 168.3C275.337 164.601 278.343 161.365 282.273 161.365L337.757 160.44C341.687 160.44 344.692 157.435 344.692 153.505L343.767 98.0208C343.767 94.0907 340.762 91.0856 336.832 91.0856L274.413 92.0106C236.037 92.7041 205.521 124.145 206.214 162.521L207.37 226.096C207.601 232.569 202.515 237.655 196.042 237.886L168.3 238.348C164.37 238.348 161.365 241.354 161.365 245.284L162.059 289.208C162.059 293.138 165.064 296.144 168.994 296.144L196.736 295.681C203.209 295.681 208.295 300.767 208.526 307.009L210.607 438.783C210.838 451.729 200.435 462.363 187.488 462.363H134.317C50.1664 462.363 0 412.197 0 327.816V134.317C0 50.1664 50.1664 0 134.317 0H328.047C412.197 0 462.363 50.1664 462.363 134.317V328.047Z" fill="black"/>
</svg>
