<svg width="317" height="317" viewBox="0 0 317 317" fill="none" xmlns="http://www.w3.org/2000/svg">
<path d="M105.409 158.622C105.409 129.519 128.996 105.92 158.101 105.92C187.205 105.92 210.805 129.519 210.805 158.622C210.805 187.725 187.205 211.324 158.101 211.324C128.996 211.324 105.409 187.725 105.409 158.622ZM76.9179 158.622C76.9179 203.458 113.263 239.802 158.101 239.802C202.938 239.802 239.283 203.458 239.283 158.622C239.283 113.786 202.938 77.4424 158.101 77.4424C113.263 77.4424 76.9179 113.786 76.9179 158.622ZM223.525 74.2236C223.521 84.7012 232.012 93.1983 242.49 93.2025C252.968 93.2067 261.465 84.7163 261.469 74.2388C261.474 63.7612 252.983 55.264 242.505 55.2599C232.032 55.2647 223.534 63.751 223.525 74.2236ZM94.228 287.307C78.8138 286.605 70.4358 284.038 64.8681 281.869C57.4867 278.995 52.22 275.573 46.6827 270.043C41.1454 264.514 37.7178 259.252 34.8568 251.871C32.6864 246.306 30.1188 237.926 29.4181 222.512C28.6516 205.848 28.4986 200.842 28.4986 158.623C28.4986 116.404 28.6643 111.412 29.4181 94.7341C30.1201 79.3206 32.7066 70.9567 34.8568 65.3754C37.7304 57.9943 41.153 52.7278 46.6827 47.1907C52.2124 41.6536 57.474 38.2261 64.8681 35.3653C70.4332 33.1949 78.8138 30.6275 94.228 29.9268C110.893 29.1604 115.899 29.0073 158.101 29.0073C200.302 29.0073 205.313 29.173 221.992 29.9268C237.407 30.6288 245.771 33.2152 251.352 35.3653C258.734 38.2261 264 41.6612 269.538 47.1907C275.075 52.7202 278.49 57.9943 281.364 65.3754C283.534 70.9403 286.102 79.3206 286.802 94.7341C287.569 111.412 287.722 116.404 287.722 158.623C287.722 200.842 287.569 205.834 286.802 222.512C286.1 237.926 283.52 246.304 281.364 251.871C278.49 259.252 275.067 264.519 269.538 270.043C264.008 275.568 258.734 278.995 251.352 281.869C245.787 284.039 237.407 286.606 221.992 287.307C205.327 288.073 200.321 288.226 158.101 288.226C115.88 288.226 110.888 288.073 94.228 287.307ZM92.9189 1.48501C76.0882 2.25145 64.5873 4.92008 54.5435 8.82817C44.1417 12.864 35.3361 18.2784 26.5369 27.0634C17.7376 35.8484 12.3369 44.6675 8.30092 55.0689C4.39267 65.1186 1.72393 76.6127 0.957458 93.4428C0.178338 110.299 0 115.689 0 158.622C0 201.555 0.178338 206.944 0.957458 223.801C1.72393 240.632 4.39267 252.125 8.30092 262.175C12.3369 272.57 17.7389 281.399 26.5369 290.18C35.3349 298.962 44.1417 304.369 54.5435 308.416C64.6063 312.324 76.0882 314.992 92.9189 315.759C109.785 316.525 115.166 316.716 158.101 316.716C201.036 316.716 206.425 316.538 223.282 315.759C240.114 314.992 251.608 312.324 261.658 308.416C272.053 304.369 280.865 298.965 289.664 290.18C298.464 281.396 303.853 272.57 307.9 262.175C311.809 252.125 314.49 240.631 315.244 223.801C316.01 206.932 316.189 201.555 316.189 158.622C316.189 115.689 316.01 110.299 315.244 93.4428C314.477 76.6114 311.809 65.1123 307.9 55.0689C303.853 44.6739 298.45 35.8623 289.664 27.0634C280.879 18.2645 272.053 12.864 261.671 8.82817C251.608 4.92008 240.113 2.2388 223.295 1.48501C206.438 0.718566 201.048 0.527588 158.113 0.527588C115.178 0.527588 109.785 0.705918 92.9189 1.48501Z" fill="url(#paint0_radial_14_4)"/>
<defs>
<radialGradient id="paint0_radial_14_4" cx="0" cy="0" r="1" gradientUnits="userSpaceOnUse" gradientTransform="translate(672.148 5083.45) scale(6604.39)">
<stop offset="0.09" stop-color="#FA8F21"/>
<stop offset="0.78" stop-color="#D82D7E"/>
</radialGradient>
</defs>
</svg>
